HIERARCHY
ROOT Hips
{
  OFFSET 179.413 98.2961 100.729
  CHANNELS 6 Xposition Yposition Zposition Zrotation Xrotation Yrotation
  JOINT ToSpine
  {
    OFFSET -2.69724 7.43032 -0.144315
    CHANNELS 3 Zrotation Xrotation Yrotation
    JOINT Spine
    {
      OFFSET -0.0310711 10.7595 1.96963
      CHANNELS 3 Zrotation Xrotation Yrotation
      JOINT Spine1
      {
        OFFSET 13.1342 3.43533 0.764692
        CHANNELS 3 Zrotation Xrotation Yrotation
        JOINT Neck
        {
          OFFSET 29.8703 7.82586 -0.130764
          CHANNELS 3 Zrotation Xrotation Yrotation
          JOINT Head
          {
            OFFSET 9.52751 0.295786 -0.907742
            CHANNELS 3 Zrotation Xrotation Yrotation
            End Site
            {
              OFFSET 16.4037 0.713936 2.7358
            }
          }
        }
        JOINT LeftShoulder
        {
          OFFSET 27.5574 4.95586 2.47156
          CHANNELS 3 Zrotation Xrotation Yrotation
          JOINT LeftArm
          {
            OFFSET 1.20734 -0.998971 20.1238
            CHANNELS 3 Zrotation Xrotation Yrotation
            JOINT LeftForeArm
            {
              OFFSET 26.8049 -0.0536703 -0.155908
              CHANNELS 3 Zrotation Xrotation Yrotation
              JOINT LeftHand
              {
                OFFSET 26.6817 0 0.320147
                CHANNELS 3 Zrotation Xrotation Yrotation
                End Site
                {
                  OFFSET 18.6119 0 0.382219
                }
              }
            }
          }
        }
        JOINT RightShoulder
        {
          OFFSET 27.5927 4.71444 -2.65209
          CHANNELS 3 Zrotation Xrotation Yrotation
          JOINT RightArm
          {
            OFFSET 2.83739 -1.17114 -18.7564
            CHANNELS 3 Zrotation Xrotation Yrotation
            JOINT RightForeArm
            {
              OFFSET 28.839 -0.0548439 1.22491
              CHANNELS 3 Zrotation Xrotation Yrotation
              JOINT RightHand
              {
                OFFSET 26.5114 0 -0.101894
                CHANNELS 3 Zrotation Xrotation Yrotation
                End Site
                {
                  OFFSET 18.2168 0 0
                }
              }
            }
          }
        }
      }
    }
  }
  JOINT LeftUpLeg
  {
    OFFSET -4.76168 -1.9167 -10.2353
    CHANNELS 3 Zrotation Xrotation Yrotation
    JOINT LeftLeg
    {
      OFFSET 2.55951 -42.0585 -8.02213
      CHANNELS 3 Zrotation Xrotation Yrotation
      JOINT LeftFoot
      {
        OFFSET 3.16357 -42.5282 -3.95426
        CHANNELS 3 Zrotation Xrotation Yrotation
        JOINT LeftToeBase
        {
          OFFSET 0.346054 -6.02161 12.8035
          CHANNELS 3 Zrotation Xrotation Yrotation
          End Site
          {
            OFFSET 0.134235 -1.35082 5.13018
          }
        }
      }
    }
  }
  JOINT RightUpLeg
  {
    OFFSET -4.94151 -1.41743 10.6446
    CHANNELS 3 Zrotation Xrotation Yrotation
    JOINT RightLeg
    {
      OFFSET -2.56294 -42.0364 -7.94377
      CHANNELS 3 Zrotation Xrotation Yrotation
      JOINT RightFoot
      {
        OFFSET -3.0952 -42.555 -4.02241
        CHANNELS 3 Zrotation Xrotation Yrotation
        JOINT RightToeBase
        {
          OFFSET -0.0828122 -6.13587 12.8035
          CHANNELS 3 Zrotation Xrotation Yrotation
          End Site
          {
            OFFSET -0.131328 -1.35082 5.13018
          }
        }
      }
    }
  }
}
MOTION
Frames:	17
Frame Time:	0.0333333
29.7671 95.9991 -42.2831 57.4129 -36.5991 -25.8655 -70.1915 0 88.8779 93.8337 66.7343 -10.0775 -2.04156 16.7943 1.59283 -163.633 20.8671 174.454 -158.335 60.2147 -174.33 0.572863 -12.8908 -27.7608 -84.4893 45.2922 -75.9239 15.8396 -9.11062 -118.29 0.420957 0.000575438 0.35866 -2.06248 6.91339 44.2104 -64.9351 -44.8259 54.664 15.4988 -1.40661 84.7622 0.58676 0.000331005 0.0646653 -65.8411 -6.13105 88.4055 -5.49982 53.1538 -16.1022 -10.3242 11.9319 3.23713 0.665856 -1.34249 -0.335443 -27.803 2.88498 84.5958 2.43502 15.1271 16.9779 14.4 17.3085 -5.22906 2.72797 -7.64703 -18.8747 
22.2765 96.6447 -49.5979 53.8644 -36.9431 -28.8386 -70.1915 0 88.8779 89.5008 67.2429 -4.72439 -2.04332 17.3472 1.08911 -166.834 20.7717 175.642 -160.383 60.303 -174.137 0.630548 -12.5733 -27.6626 -83.8238 45.1216 -76.771 15.423 -10.7266 -123.109 0.420957 0.000575438 0.35866 -2.08273 7.23606 43.1356 -67.0851 -45.1262 51.6577 15.2787 -0.443622 88.1726 0.58676 0.000331005 0.0646653 -65.1173 -8.16431 89.3792 -3.92328 43.6209 -16.0013 -7.31465 5.68074 1.65769 2.58019 -5.47917 -0.420083 -23.8131 1.99604 85.4305 1.43196 20.0799 18.9374 9.77343 11.4143 -2.97165 2.3977 -15.2408 -18.7259 
14.2083 96.2807 -56.9719 50.9583 -38.4948 -32.4094 -70.1915 0 88.8779 86.6465 68.8692 -3.2622 -2.58514 18.5125 2.27974 -168.446 20.6209 175.79 -160.115 60.1396 -174.75 0.61769 -12.6334 -27.7697 -81.4068 45.591 -77.5953 14.3491 -9.37526 -121.583 0.420957 0.000575438 0.35866 -2.07082 7.19013 43.161 -68.0345 -42.8891 53.5452 14.9811 -0.157071 89.2017 0.58676 0.000331005 0.0646653 -61.2379 -10.3636 91.6584 -3.43491 39.721 -15.1051 -4.46913 2.59855 0.790116 5.02065 -11.1935 2.61044 -20.4196 4.48181 96.6719 2.53844 35.8028 10.4355 3.00118 4.29154 -0.686929 1.77645 -23.1697 -24.8502 
5.94747 95.1526 -64.5573 52.3544 -41.2695 -29.8231 -70.1915 0 88.8779 98.6723 69.3607 -13.3469 -4.05139 19.3038 2.29556 -165.917 21.2231 173.989 -157.655 60.4334 -175.891 0.444635 -13.492 -28.5137 -80.0158 46.4158 -74.904 14.5731 -6.94093 -114.061 0.420957 0.000575438 0.35866 -1.99996 6.74059 44.0824 -67.5732 -39.3631 60.0732 14.3104 -0.706222 87.0398 0.58676 0.000331005 0.0646653 -58.2336 -9.14215 91.6328 -3.4113 41.2166 -13.3245 -5.23868 -2.71409 0.251354 9.01697 -18.8989 3.1569 -22.1533 5.59111 95.274 3.77355 53.4706 3.40402 -2.32549 1.97456 0.335507 1.63271 -26.5084 -22.2327 
-2.10263 93.688 -71.8423 54.7556 -42.5604 -27.0919 -70.1915 0 88.8779 108.764 69.2048 -23.6087 -6.35563 19.5019 4.09771 -164.087 21.828 174.05 -156.793 61.0738 -174.996 0.289314 -13.949 -30.5799 -78.8706 47.4781 -72.5255 16.9773 -4.50564 -103.641 0.420957 0.000575438 0.35866 -1.95269 6.37427 45.0745 -67.8312 -35.3957 66.2889 15.1974 -1.23475 85.2822 0.58676 0.000331005 0.0646653 -52.4164 -8.34165 91.063 -4.09822 47.7106 -11.9261 -1.07036 -14.7795 -1.27119 5.89592 -13.2179 5.35752 -26.2671 4.13956 93.1604 6.69156 69.3328 -7.1531 -4.02238 -2.24989 0.763378 2.22096 -21.185 -15.72 
-10.1502 91.935 -79.1524 53.481 -43.7201 -28.2257 -70.1915 0 88.8779 108.846 70.6959 -23.4056 -6.25168 20.9163 4.18261 -164.644 22.505 173.309 -155.127 61.4774 -177.615 0.334352 -13.5147 -31.9548 -77.075 48.5939 -71.3555 18.1691 -0.795601 -91.7158 0.420957 0.000575438 0.35866 -2.05945 6.50242 46.0449 -67.9819 -31.7592 74.1248 14.9189 -1.29112 84.9867 0.58676 0.000331005 0.0646653 -41.7119 -7.69598 91.4504 -5.92933 56.0153 -13.3536 1.88246 -18.8234 -1.53135 5.9551 -14.2305 15.4249 -30.4606 2.75114 92.9279 15.7715 79.8734 -18.655 -6.45495 -1.76632 1.02149 2.24772 -23.2959 -14.4197 
-17.6365 90.6206 -85.438 56.0555 -44.4575 -27.2597 -70.1915 0 88.8779 108.918 71.7714 -24.8734 -4.59412 22.1549 4.1171 -165.163 23.6309 171.862 -155.042 62.4676 -178.944 0.245568 -13.954 -31.7996 -73.8118 50.5616 -69.6155 15.9555 2.56437 -80.4806 0.420957 0.000575438 0.35866 -2.05264 6.24898 47.2012 -66.8599 -28.3978 82.3613 14.3975 -0.730236 86.9644 0.58676 0.000331005 0.0646653 -34.8731 -7.6617 92.0043 -7.3547 60.6619 -13.4128 5.64389 -16.1446 -1.30188 7.44159 -16.661 22.4624 -41.047 -0.354877 92.8517 26.1101 83.1647 -28.7619 -8.96269 -0.159145 1.30873 2.43794 -22.8022 -9.89276 
-24.6902 90.6575 -91.2718 59.1373 -46.0898 -25.3663 -70.1915 0 88.8779 114.863 72.3698 -30.555 -4.77436 23.546 4.40762 -164.162 24.7968 172.162 -153.26 63.4386 178.681 0.195415 -14.0568 -32.5807 -69.9162 53.1062 -64.127 12.4962 2.32812 -79.0169 0.420957 0.000575438 0.35866 -2.01951 7.08992 42.8688 -65.1748 -31.8798 89.6671 15.5787 0.644621 92.0779 0.58676 0.000331005 0.0646653 -31.529 -6.79432 92.1261 -5.96449 59.6143 -6.52812 6.09298 -15.6064 -1.281 3.74722 -10.6351 13.6127 -55.1466 -2.37391 92.4795 12.1557 77.5897 -15.4853 -9.0144 2.82692 1.31712 2.28889 -18.5365 -1.27846 
-31.8106 92.1268 -97.1798 56.8259 -47.2868 -27.4703 -70.1915 0 88.8779 111.773 75.0989 -25.233 -4.59366 25.9892 3.58602 -161.844 26.5479 172.592 -153.223 65.3585 179.355 0.592144 -12.4426 -30.5994 -65.4573 56.9736 -61.0809 14.0222 2.11878 -80.9577 0.420957 0.000575438 0.35866 -1.99378 7.55982 40.7095 -64.3705 -34.2817 94.3547 16.614 2.92681 99.4286 0.58676 0.000331005 0.0646653 -27.8755 -4.73396 91.7693 -3.97056 52.5145 -4.93063 4.86141 -8.94271 -1.04168 2.48726 -6.84044 5.30139 -64.5097 -4.15019 92.3605 4.5876 65.4159 -8.24772 -1.54829 7.27089 -0.112468 1.15446 -8.13942 -1.9157 
-39.6841 94.9828 -103.326 54.4477 -46.9295 -28.6986 -70.1915 0 88.8779 109.497 77.124 -20.6304 -4.45083 27.7475 2.92799 -161.169 28.7466 172.945 -152.427 67.5059 177.419 0.781613 -11.6824 -27.9265 -63.0174 60.6755 -58.0803 13.3584 1.36797 -83.6177 0.420957 0.000575438 0.35866 -1.79375 7.11352 39.6462 -63.5078 -34.67 97.6887 17.3719 5.23523 105.941 0.58676 0.000331005 0.0646653 -27.893 -2.73874 88.971 -2.40143 36.8256 -7.32446 -0.550979 3.82416 0.296319 1.65705 -3.68008 0.175388 -71.0681 -2.89294 92.9764 2.09488 50.9615 -4.93799 -0.205465 10.8011 -0.632422 0.770583 -2.10974 -3.64361 
-48.2502 97.4082 -109.978 52.275 -44.6063 -27.9489 -70.1915 0 88.8779 107.815 77.1377 -15.1764 -4.40958 27.9651 0.891683 -162.128 30.5876 172.278 -151.219 69.1702 174.385 0.85306 -11.4151 -25.7547 -65.2982 63.0617 -52.2686 13.3989 0.746608 -86.2047 0.420957 0.000575438 0.35866 -1.76275 6.98464 39.6946 -62.9027 -35.0329 97.9401 16.6844 7.35986 112.783 0.58676 0.000331005 0.0646653 -26.7636 1.52486 93.115 -0.986769 23.7498 -21.8953 -6.26709 13.809 2.53014 3.45259 -9.10182 7.50106 -73.7557 0.618834 92.4855 1.65026 39.0263 0.0205962 -4.53105 11.6726 0.296036 1.53585 -8.80437 -5.51959 
-56.7699 98.263 -116.923 47.8164 -42.3105 -29.3531 -70.1915 0 88.8779 89.9422 77.3083 6.72869 -1.69793 28.2783 -1.96152 -163.296 32.6706 171.052 -149.701 71.0924 171.743 0.910727 -11.0679 -25.307 -66.7767 63.7352 -49.3054 12.3505 0.222614 -88.3009 0.420957 0.000575438 0.35866 -1.68856 6.63882 39.9661 -63.2042 -36.0514 96.2676 18.1939 9.62859 116.607 0.58676 0.000331005 0.0646653 -19.9557 2.85889 88.4407 -1.90081 30.6919 -17.6015 -3.78802 8.44099 1.32757 4.47843 -11.8469 14.1025 -69.876 3.56072 92.0336 1.04999 34.7389 -0.656892 -5.62773 9.05468 0.620648 1.35237 -9.58139 -2.47016 
-65.1265 98.0148 -124.05 50.4651 -41.3807 -28.3137 -70.1915 0 88.8779 97.4401 76.4085 -3.39782 -2.99744 26.8583 0.223091 -163.722 34.9175 171.726 -152.505 73.8223 173.843 0.800319 -11.6182 -27.3632 -71.3096 61.44 -46.8677 16.9091 0.169824 -88.7569 0.420957 0.000575438 0.35866 -1.78436 6.8026 40.7141 -63.2802 -37.0218 92.9276 16.7621 8.60179 116.034 0.58676 0.000331005 0.0646653 -20.3294 1.82222 87.7948 -3.48707 43.7109 -11.6149 -5.16115 4.51133 1.12877 6.1666 -14.4832 14.5456 -67.466 2.51896 88.0638 0.876983 35.8951 -1.06256 -9.22205 6.20763 1.35701 1.67778 -12.3418 -3.23443 
-73.9762 97.15 -131.513 54.7913 -41.8948 -28.8317 -70.1915 0 88.8779 111.558 74.8628 -23.678 -5.62745 25.7328 3.05726 -161.2 36.0627 170.795 -152.633 75.0878 174.695 0.772593 -11.6909 -28.4704 -69.3837 60.8513 -52.2378 14.25 0.467368 -87.5002 0.420957 0.000575438 0.35866 -1.89773 6.78094 42.439 -66.9039 -36.6002 86.1976 21.0337 8.30059 110.253 0.58676 0.000331005 0.0646653 -24.2897 0.817938 92.182 -5.43474 58.5998 -5.40034 -5.48281 0.857606 0.726841 2.51431 -8.40153 12.1661 -64.6607 0.756846 90.3197 1.29549 38.6724 -2.77542 -6.40182 2.21384 0.928565 1.46257 -11.5232 -1.04112 
-83.1084 95.2468 -138.815 55.2175 -40.8508 -29.8462 -70.1915 0 88.8779 109.483 73.7263 -24.2309 -5.86749 24.3886 3.59912 -161.119 36.4231 169.952 -151.632 75.3614 173.52 0.661701 -12.1391 -30.1236 -71.1699 57.5284 -54.9671 14.8993 0.326039 -88.1017 0.420957 0.000575438 0.35866 -1.91267 6.3722 44.482 -68.6521 -35.5507 81.1656 22.3839 5.85572 103.624 0.58676 0.000331005 0.0646653 -26.2834 0.91945 94.2208 -11.3268 72.4138 2.53134 -4.62142 3.1921 0.882984 3.92471 -10.5698 11.3024 -57.9602 1.9224 91.8726 1.78675 41.76 -0.641508 -4.68611 -1.29041 0.801447 2.34716 -32.3075 -13.4306 
-91.6811 93.2821 -145.321 56.5735 -40.3195 -29.2031 -70.1915 0 88.8779 106.248 72.598 -22.0462 -4.55449 23.0979 3.37067 -162.073 36.0336 170.319 -153.21 75.0574 174.519 0.39097 -13.2421 -32.0175 -72.959 53.1761 -57.8728 15.0444 -0.129265 -89.7797 0.420957 0.000575438 0.35866 -1.9538 6.26006 45.6458 -68.9402 -35.5788 77.6534 18.2047 2.25215 96.5544 0.58676 0.000331005 0.0646653 -32.7283 1.6276 95.3724 -25.1951 80.9596 17.559 -4.65905 3.86452 0.967969 2.58429 -7.79609 8.66626 -50.1138 1.61287 88.3561 1.27055 47.9123 -7.80159 -11.3367 -13.0377 1.34376 3.53841 -27.6562 0.312037 
-99.7401 91.7172 -152.098 56.3545 -39.6971 -27.4807 -70.1915 0 88.8779 105.925 70.8408 -19.3296 -4.43631 21.4754 2.5763 -162.584 34.6272 171.099 -153.895 73.6128 174.499 0.219047 -13.8028 -33.5371 -73.4562 49.0688 -64.3089 13.9359 -0.173471 -90.0014 0.420957 0.000575438 0.35866 -2.08715 6.40481 46.9305 -67.4349 -34.2716 75.4964 14.001 -0.720291 86.9214 0.58676 0.000331005 0.0646653 -40.0274 2.00682 94.0291 -42.6388 83.864 33.7662 -3.65171 5.95725 1.03098 2.37977 -7.31221 8.12316 -40.308 4.47516 88.1234 3.36065 54.3845 -0.800286 -4.9568 -21.8965 1.56776 2.55854 -14.284 -21.983 
